<?xml version="1.0" standalone="no"?>
<!DOCTYPE svg PUBLIC "-//W3C//DTD SVG 20010904//EN"
 "http://www.w3.org/TR/2001/REC-SVG-20010904/DTD/svg10.dtd">
<svg 
    version="1.0" 
    xmlns="http://www.w3.org/2000/svg"
    width="308.7612359841165"
    height="304.915625"
    viewBox="0 0 2000.000000 1500.000000"
    preserveAspectRatio="xMidYMid meet">
<metadata>
Created by potrace 1.16, written by Peter Selinger 2001-2019
</metadata>
<g transform="translate(0.000000,1500.000000) scale(0.100000,-0.100000)"
fill="#000000" stroke="none">
<path d="M0 7500 l0 -7500 10000 0 10000 0 0 7500 0 7500 -10000 0 -10000 0 0
-7500z m10235 4866 c394 -12 855 -98 1265 -236 1315 -442 2376 -1448 2885
-2735 35 -88 82 -218 105 -290 38 -118 120 -422 120 -445 0 -6 -13 -10 -29
-10 -28 0 -30 3 -46 78 -71 318 -221 726 -386 1047 -705 1377 -2035 2310
-3566 2504 -1097 139 -2206 -118 -3137 -726 -829 -542 -1471 -1349 -1819
-2289 -58 -155 -131 -400 -162 -536 -16 -75 -18 -78 -46 -78 -16 0 -29 4 -29
10 0 5 18 78 39 162 174 682 491 1302 949 1858 116 141 451 477 587 589 738
610 1584 973 2513 1077 139 16 477 32 552 27 19 -1 112 -5 205 -7z m-550
-2453 c3 -10 175 -515 382 -1123 206 -608 379 -1112 384 -1120 5 -9 9 468 9
1123 l0 1137 1050 0 1050 0 0 -2050 0 -2050 -1005 0 -1005 0 0 479 0 479 88 7
c98 8 103 10 95 30 -4 13 -47 15 -274 15 -255 0 -269 -1 -269 -19 0 -16 15
-19 138 -30 75 -7 142 -18 149 -24 9 -9 14 -135 19 -474 l7 -463 -234 0 -234
0 -345 987 -345 986 -3 -481 -2 -482 -186 0 c-171 0 -185 -1 -182 -17 3 -14
20 -20 83 -28 44 -5 86 -14 93 -18 9 -6 12 -113 12 -478 l0 -469 -962 2 -963
3 -3 2035 c-1 1119 0 2041 3 2048 3 9 257 12 1224 12 1152 0 1219 -1 1226 -17z
m-406 -3259 l61 -106 0 -359 0 -359 -65 0 -65 0 0 434 c0 238 -3 448 -6 465
-12 57 12 33 75 -75z"/>
</g>
</svg>
