<?xml version="1.0" standalone="no"?>
<!DOCTYPE svg PUBLIC "-//W3C//DTD SVG 20010904//EN"
 "http://www.w3.org/TR/2001/REC-SVG-20010904/DTD/svg10.dtd">
<svg version="1.0" xmlns="http://www.w3.org/2000/svg"
 width="180.000000pt" height="180.000000pt" viewBox="0 0 180.000000 180.000000"
 preserveAspectRatio="xMidYMid meet">
<metadata>
Created by potrace 1.16, written by Peter Selinger 2001-2019
</metadata>
<g transform="translate(0.000000,180.000000) scale(0.100000,-0.100000)"
fill="#1f53d5" stroke="none">
<path d="M570 1464 c-88 -24 -238 -96 -389 -185 -110 -65 -141 -88 -146 -108
-3 -14 -8 -34 -11 -43 -4 -14 23 -5 113 38 259 122 340 146 361 107 27 -47
-28 -132 -312 -478 -117 -141 -145 -182 -140 -199 10 -36 85 -184 98 -195 10
-8 59 20 191 110 98 66 213 147 256 180 115 87 280 193 378 241 110 54 187 62
241 26 73 -50 73 -73 5 -312 -52 -182 -55 -223 -22 -262 18 -21 32 -26 65 -26
72 1 150 45 403 229 114 83 117 86 126 134 6 27 8 49 5 49 -3 0 -37 -17 -76
-39 -125 -68 -168 -73 -187 -24 -13 34 2 84 68 228 118 255 139 354 89 411
-21 25 -29 28 -87 27 -117 -1 -238 -53 -474 -203 -266 -170 -346 -213 -422
-225 -37 -6 -46 -3 -68 19 -36 36 -26 66 85 243 70 110 82 146 66 193 -23 69
-107 95 -216 64z"/>
</g>
</svg>
